#!OML:ASF F:\VICON\USERDATA\INSTALL\rory3\rory3.ASF
:FULLY-SPECIFIED
:DEGREES
148
root 4.01713 18.0231 -0.947884 -3.79521 -48.4352 5.15263
lowerback 10.6038 0.036976 -3.47953
upperback 0.849324 -0.326113 1.02165
thorax -5.03784 -0.0825279 3.08139
lowerneck -21.7786 -4.18246 -10.6438
upperneck 25.8428 -4.59779 7.62849
head 12.6582 -2.13443 3.9286
rclavicle 1.08487e-013 3.97569e-015
rhumerus -40.0354 -18.9585 -74.1887
rradius 28.3032
rwrist 11.7641
rhand -11.2893 9.87693
rfingers 7.12502
rthumb 14.7418 -19.5789
lclavicle 1.08487e-013 3.97569e-015
lhumerus -35.8176 8.42232 80.6427
lradius 37.4086
lwrist -7.7767
lhand -15.4076 24.9019
lfingers 7.12502
lthumb 10.7716 54.6057
rfemur -23.0074 -0.280552 20.2891
rtibia 27.5407
rfoot -6.42384 4.69075
rtoes 4.85101
lfemur 10.4674 -2.9447 -27.3585
ltibia 27.6414
lfoot 13.3876 -10.6553
ltoes 0.330235
149
root 3.88886 18.052 -0.847714 -3.34654 -48.5822 4.40153
lowerback 10.5778 0.0855852 -3.00457
upperback 0.875463 -0.198168 1.1475
thorax -5.00684 -0.0296112 2.92542
lowerneck -21.73 -4.15824 -10.6305
upperneck 25.8616 -4.57399 7.62535
head 12.6526 -2.12442 3.92994
rclavicle -5.70512e-014 2.62396e-014
rhumerus -40.0192 -18.4544 -74.4231
rradius 28.3887
rwrist 11.6368
rhand -11.181 9.95631
rfingers 7.12502
rthumb 14.8461 -19.4918
lclavicle -5.70512e-014 2.62396e-014
lhumerus -35.9613 8.49098 80.5851
lradius 37.1773
lwrist -7.89125
lhand -14.479 24.7848
lfingers 7.12502
lthumb 11.6672 54.4399
rfemur -22.1306 -0.278735 20.9541
rtibia 27.1648
rfoot -6.01951 4.99732
rtoes 7.71162
lfemur 9.20782 -2.68725 -26.5342
ltibia 30.1952
lfoot 16.0538 -10.9291
ltoes 1.30932
150
root 3.76477 18.0812 -0.760895 -2.80034 -48.5433 3.64737
lowerback 10.6037 0.0695739 -2.64758
upperback 0.839371 -0.16957 1.31071
thorax -5.0617 -0.0201385 2.89094
lowerneck -21.723 -4.13146 -10.6038
upperneck 25.959 -4.54691 7.60528
head 12.6858 -2.11454 3.92512
rclavicle -5.45167e-014 0
rhumerus -40.0008 -17.8823 -74.7045
rradius 28.587
rwrist 11.3741
rhand -11.1787 10.0089
rfingers 7.12502
rthumb 14.8483 -19.439
lclavicle -5.45167e-014 0
lhumerus -36.1584 8.50132 80.6216
lradius 36.9998
lwrist -8.05331
lhand -14.218 25.1096
lfingers 7.12502
lthumb 11.9189 54.7504
rfemur -21.3313 -0.160782 21.5944
rtibia 26.719
rfoot -5.33496 5.02671
rtoes 13.2209
lfemur 7.74299 -2.42925 -25.5862
ltibia 32.7568
lfoot 18.4343 -11.728
ltoes 2.3873
151
root 3.64325 18.1095 -0.674899 -2.35614 -48.4861 3.08597
lowerback 10.6324 0.0666331 -2.45398
upperback 0.775509 -0.142011 1.48161
thorax -5.14674 -0.00672562 2.9575
lowerneck -21.7128 -4.16057 -10.6388
upperneck 26.0057 -4.55814 7.5333
head 12.7032 -2.1336 3.90195
rclavicle -1.33683e-014 -3.4191e-014
rhumerus -39.9938 -17.4354 -74.8382
rradius 28.7977
rwrist 11.1737
rhand -11.2641 9.7889
rfingers 7.12502
rthumb 14.7661 -19.6651
lclavicle -1.33683e-014 -3.4191e-014
lhumerus -36.3322 8.46532 80.7557
lradius 36.7269
lwrist -8.50993
lhand -13.7611 25.4036
lfingers 7.12502
lthumb 12.3595 55.0183
rfemur -20.5817 -0.0470691 22.0938
rtibia 26.2556
rfoot -4.7954 5.04669
rtoes 16.9385
lfemur 6.17126 -2.30229 -24.8573
ltibia 35.3149
lfoot 20.4922 -12.5196
ltoes 5.10178
152
root 3.52868 18.129 -0.589528 -1.83397 -48.4131 2.37647
lowerback 10.7478 0.0880655 -2.1314
upperback 0.724467 -0.0657576 1.69679
thorax -5.2704 0.0281868 2.99107
lowerneck -21.8379 -4.21863 -10.6548
upperneck 26.1627 -4.58031 7.37117
head 12.791 -2.1665 3.84077
rclavicle -3.04638e-014 -8.74653e-015
rhumerus -39.941 -17.0714 -74.8525
rradius 28.9715
rwrist 11.111
rhand -11.0207 9.88879
rfingers 7.12502
rthumb 15.0006 -19.5479
lclavicle -3.04638e-014 -8.74653e-015
lhumerus -36.4833 8.42747 80.9328
lradius 36.4963
lwrist -9.24629
lhand -13.0511 25.1776
lfingers 7.12502
lthumb 13.0439 54.7497
rfemur -19.8733 -0.0477726 22.7145
rtibia 25.8816
rfoot -4.7107 5.10735
rtoes 17.1186
lfemur 4.59495 -2.01906 -24.0651
ltibia 37.8475
lfoot 22.0405 -14.0762
ltoes 7.00529
153
root 3.41645 18.1348 -0.503689 -1.39403 -48.494 1.67725
lowerback 10.9124 0.154344 -1.72967
upperback 0.678176 0.0772565 1.85279
thorax -5.42052 0.093208 2.90752
lowerneck -21.8239 -4.24383 -10.694
upperneck 26.2886 -4.59898 7.32726
head 12.8415 -2.18738 3.83025
rclavicle 1.94312e-014 -3.97569e-015
rhumerus -39.988 -16.7099 -74.9234
rradius 29.241
rwrist 11.071
rhand -10.7874 10.2397
rfingers 7.12502
rthumb 15.2252 -19.1801
lclavicle 1.94312e-014 -3.97569e-015
lhumerus -36.7674 8.28427 81.0313
lradius 36.4867
lwrist -9.55373
lhand -12.7364 24.653
lfingers 7.12502
lthumb 13.3473 54.2055
rfemur -19.1284 0.174535 23.3074
rtibia 25.5923
rfoot -4.91215 4.96976
rtoes 16.7589
lfemur 3.12612 -1.29916 -23.2741
ltibia 40.3049
lfoot 22.6245 -16.6133
ltoes 5.91847
154
root 3.3074 18.1397 -0.431129 -1.19474 -48.4549 1.22393
lowerback 11.2447 0.180783 -1.51093
upperback 0.632403 0.139733 1.90656
thorax -5.65843 0.122461 2.83332
lowerneck -21.6875 -4.23674 -10.7166
upperneck 26.2671 -4.62826 7.42854
head 12.8115 -2.19186 3.86872
rclavicle 2.93207e-015 -5.56597e-015
rhumerus -39.9995 -16.3916 -75.1624
rradius 29.5429
rwrist 11.1338
rhand -10.8414 10.161
rfingers 7.12502
rthumb 15.1732 -19.2627
lclavicle 2.93207e-015 -5.56597e-015
lhumerus -36.9897 8.19061 80.9511
lradius 36.4561
lwrist -9.79529
lhand -12.7751 24.4143
lfingers 7.12502
lthumb 13.31 53.9693
rfemur -18.3405 0.46168 23.6958
rtibia 25.3656
rfoot -5.13915 4.56802
rtoes 17.3895
lfemur 1.70789 -0.748066 -22.6233
ltibia 42.7007
lfoot 22.6919 -18.1887
ltoes 6.29656
155
root 3.20105 18.147 -0.346543 -1.06759 -48.5164 0.623398
lowerback 11.5984 0.22272 -1.04415
upperback 0.725699 0.251217 1.91372
thorax -5.76258 0.164539 2.55991
lowerneck -21.6036 -4.25433 -10.5542
upperneck 26.1635 -4.70494 7.39281
head 12.7552 -2.21356 3.81055
rclavicle -6.20208e-014 -1.27222e-014
rhumerus -39.8323 -15.9606 -75.6602
rradius 29.8641
rwrist 11.0426
rhand -11.1823 9.48156
rfingers 7.12502
rthumb 14.8448 -19.9667
lclavicle -6.20208e-014 -1.27222e-014
lhumerus -37.0252 8.09859 80.8313
lradius 36.3551
lwrist -10.0394
lhand -12.8578 24.3453
lfingers 7.12502
lthumb 13.2303 53.9054
rfemur -17.3637 0.476708 24.183
rtibia 25.1686
rfoot -5.429 4.58302
rtoes 17.9707
lfemur 0.539433 -0.406515 -21.9899
ltibia 45.0276
lfoot 21.9295 -18.5714
ltoes 7.06814
156
root 3.09773 18.1557 -0.262261 -0.741507 -48.5411 -0.00748014
lowerback 11.7889 0.235428 -0.566806
upperback 0.78185 0.330502 1.94644
thorax -5.81142 0.190698 2.3115
lowerneck -21.6609 -4.26815 -10.3894
upperneck 26.1726 -4.75426 7.31519
head 12.7688 -2.22757 3.74316
rclavicle -7.10655e-015 -7.15625e-015
rhumerus -39.5865 -15.2521 -76.2236
rradius 30.1996
rwrist 10.5096
rhand -11.525 8.89101
rfingers 7.12502
rthumb 14.5147 -20.5813
lclavicle -7.10655e-015 -7.15625e-015
lhumerus -37.0239 8.19123 80.722
lradius 36.2709
lwrist -10.0577
lhand -12.763 23.9231
lfingers 7.12502
lthumb 13.3217 53.4772
rfemur -16.591 0.345631 24.6851
rtibia 24.9456
rfoot -5.73377 4.81181
rtoes 18.4881
lfemur -0.831404 -0.0596384 -21.3715
ltibia 47.2907
lfoot 20.1423 -18.8961
ltoes 4.16693
157
root 2.99354 18.1638 -0.180764 -0.417627 -48.63 -0.538712
lowerback 11.9226 0.304404 -0.264161
upperback 0.801012 0.46707 2.03909
thorax -5.87049 0.250669 2.21536
lowerneck -21.6878 -4.27577 -10.4164
upperneck 26.2053 -4.76315 7.34452
head 12.7901 -2.2302 3.75864
rclavicle -3.65267e-014 -1.27222e-014
rhumerus -39.3623 -15.1203 -76.2836
rradius 30.3354
rwrist 10.4188
rhand -11.4764 9.02967
rfingers 7.12502
rthumb 14.5615 -20.4392
lclavicle -3.65267e-014 -1.27222e-014
lhumerus -37.0388 8.48466 80.6562
lradius 36.194
lwrist -10.052
lhand -12.4059 23.5579
lfingers 7.12502
lthumb 13.6659 53.0892
rfemur -15.8311 0.256319 25.1222
rtibia 24.5696
rfoot -5.98698 5.03498
rtoes 18.7728
lfemur -2.28704 0.402743 -20.8412
ltibia 49.4641
lfoot 17.6258 -19.1406
ltoes -0.539212
158
root 2.89198 18.1684 -0.103781 -0.0590775 -48.6679 -1.14217
lowerback 12.0801 0.340577 0.0834402
upperback 0.828447 0.568342 2.15763
thorax -5.93169 0.292045 2.12671
lowerneck -21.5568 -4.28905 -10.5997
upperneck 26.1073 -4.76729 7.48334
head 12.734 -2.23329 3.84164
rclavicle -3.81667e-014 -5.56597e-015
rhumerus -39.0851 -15.1609 -76.2254
rradius 30.3346
rwrist 10.6649
rhand -11.3027 9.37014
rfingers 7.12502
rthumb 14.7289 -20.0866
lclavicle -3.81667e-014 -5.56597e-015
lhumerus -37.053 8.7762 80.5925
lradius 36.0477
lwrist -10.302
lhand -11.8695 24.0591
lfingers 7.12502
lthumb 14.1827 53.555
rfemur -15.0427 0.102581 25.6095
rtibia 24.1559
rfoot -6.18834 5.20487
rtoes 19.0074
lfemur -3.67749 0.780745 -20.265
ltibia 51.4941
lfoot 14.9051 -19.1694
ltoes -3.77518
